<svg width="200" height="200" viewBox="0 0 200 200" fill="none" xmlns="http://www.w3.org/2000/svg">
<path d="M153.625 41.2916H137.458V29.5416C137.458 27.375 135.542 25.2916 133.292 25.375C131.042 25.4583 129.125 27.2083 129.125 29.5416V41.2916H70.7917V29.5416C70.7917 27.375 68.875 25.2916 66.625 25.375C64.375 25.4583 62.4583 27.2083 62.4583 29.5416V41.2916H46.375C34.875 41.2916 25.5417 50.625 25.5417 62.125V153.792C25.5417 165.292 34.875 174.625 46.375 174.625H153.625C165.125 174.625 174.458 165.292 174.458 153.792V62.125C174.458 50.625 165.125 41.2916 153.625 41.2916ZM166.125 153.792C166.125 160.708 160.542 166.292 153.625 166.292H46.375C39.4583 166.292 33.875 160.708 33.875 153.792V83.625H166.125V153.792ZM166.125 75.2916H33.875V62.125C33.875 55.2083 39.4583 49.625 46.375 49.625H62.4583V54.5416C62.4583 56.7083 64.375 58.7916 66.625 58.7083C68.875 58.625 70.7917 56.875 70.7917 54.5416V49.625H129.125V54.5416C129.125 56.7083 131.042 58.7916 133.292 58.7083C135.542 58.625 137.458 56.875 137.458 54.5416V49.625H153.625C160.542 49.625 166.125 55.2083 166.125 62.125V75.2916Z" fill="white"/>
<path d="M95.7666 143.108V114.275C95.7666 113.783 95.2333 113.483 94.8166 113.742L89.5 117.008C88.6666 117.517 87.6 116.925 87.6 115.942V110.517C87.6 109.642 88.0583 108.825 88.8166 108.375L95.1833 104.567C95.575 104.333 96.0166 104.208 96.4666 104.208H101.683C103.067 104.208 104.183 105.325 104.183 106.708V143.1C104.183 144.483 103.067 145.6 101.683 145.6H98.275C96.8833 145.608 95.7666 144.492 95.7666 143.108Z" fill="#56E0FA"/>
</svg>
