<svg width="200" height="200" viewBox="0 0 200 200" fill="none" xmlns="http://www.w3.org/2000/svg">
<path d="M41.6667 141.667C41.6667 146.087 43.4226 150.326 46.5482 153.452C49.6738 156.577 53.913 158.333 58.3333 158.333C62.7536 158.333 66.9928 156.577 70.1184 153.452C73.244 150.326 75 146.087 75 141.667C75 137.246 73.244 133.007 70.1184 129.882C66.9928 126.756 62.7536 125 58.3333 125C53.913 125 49.6738 126.756 46.5482 129.882C43.4226 133.007 41.6667 137.246 41.6667 141.667Z" stroke="white" stroke-width="10" stroke-linecap="round" stroke-linejoin="round"/>
<path d="M125 141.667C125 146.087 126.756 150.326 129.882 153.452C133.007 156.577 137.246 158.333 141.667 158.333C146.087 158.333 150.326 156.577 153.452 153.452C156.577 150.326 158.333 146.087 158.333 141.667C158.333 137.246 156.577 133.007 153.452 129.882C150.326 126.756 146.087 125 141.667 125C137.246 125 133.007 126.756 129.882 129.882C126.756 133.007 125 137.246 125 141.667Z" stroke="white" stroke-width="10" stroke-linecap="round" stroke-linejoin="round"/>
<path d="M41.6667 141.667H25V108.333M16.6667 41.6667H108.333V141.667M75 141.667H125M158.333 141.667H175V91.6667M175 91.6667H108.333M175 91.6667L150 50H108.333" stroke="white" stroke-width="10" stroke-linecap="round" stroke-linejoin="round"/>
<path d="M25 75H58.3333" stroke="#56E0FA" stroke-width="10" stroke-linecap="round" stroke-linejoin="round"/>
</svg>
