<svg width="256" height="256" viewBox="0 0 256 256" fill="none" xmlns="http://www.w3.org/2000/svg">
<path d="M128.1 246.2C78.6 246.2 32.4 214.8 16 165.3C6.10001 135.4 8.40001 103.4 22.6 75.3C36.8 47.2 61 26.2 90.9 16.3C120.8 6.39997 152.8 8.69997 180.9 22.9C209 37 230 61.3 239.9 91.2C260.4 152.9 226.7 219.8 165 240.3C152.8 244.2 140.4 246.2 128.1 246.2ZM128.1 19.7C116.6 19.7 105.1 21.6 93.9 25.3C66.4 34.4 44.1 53.7 31.1 79.5C18.1 105.4 16 134.8 25 162.3C43.8 219 105.2 249.9 162 231.1C218.8 212.3 249.6 150.9 230.8 94.1C221.7 66.6 202.4 44.3 176.6 31.3C161.3 23.6 144.8 19.7 128.1 19.7ZM128 176.2C101.5 176.2 80 154.6 80 128.2C80 101.7 101.6 80.2 128 80.2C154.5 80.2 176 101.8 176 128.2C176.1 154.7 154.5 176.2 128 176.2ZM128 89.7C106.8 89.7 89.5 107 89.5 128.2C89.5 149.4 106.8 166.7 128 166.7C149.2 166.7 166.5 149.4 166.5 128.2C166.5 106.9 149.2 89.7 128 89.7Z" fill="white"/>
<path d="M85.9 207.8C84.7 207.8 83.5 207.3 82.5 206.4L71.3 195.2C69.4 193.3 69.4 190.3 71.3 188.4C73.2 186.5 76.2 186.5 78.1 188.4L89.3 199.6C91.2 201.5 91.2 204.5 89.3 206.4C88.4 207.3 87.2 207.8 85.9 207.8ZM45.9 187.1C45.6 187.1 45.2 187.1 44.9 187C42.3 186.5 40.7 183.9 41.2 181.3L44.4 165.8C44.9 163.2 47.5 161.6 50.1 162.1C52.7 162.6 54.3 165.2 53.8 167.8L50.6 183.3C50.1 185.5 48.1 187.1 45.9 187.1ZM176.9 195.3C175.7 195.3 174.5 194.8 173.5 193.9L162.3 182.7C160.4 180.8 160.4 177.8 162.3 175.9C164.2 174 167.2 174 169.1 175.9L180.3 187.1C182.2 189 182.2 192 180.3 193.9C179.3 194.9 178.1 195.3 176.9 195.3ZM114.3 192.2C111.8 192.2 109.6 190.2 109.5 187.6C109.4 185 111.5 182.7 114.1 182.6L130 182C132.6 181.8 134.9 184 135 186.6C135.1 189.2 133 191.5 130.4 191.6L114.6 192.2H114.3ZM200 185.7C198.5 185.7 197.1 185 196.1 183.7C194.6 181.6 195 178.6 197.2 177L210 167.7C212.1 166.2 215.1 166.6 216.7 168.8C218.3 171 217.8 173.9 215.6 175.5L202.8 184.8C202 185.4 201 185.7 200 185.7ZM111.8 227.4C110.8 227.4 109.8 227.1 108.9 226.4C106.8 224.8 106.4 221.8 108 219.7L117.6 207.1C119.2 205 122.2 204.6 124.3 206.2C126.4 207.8 126.8 210.8 125.2 212.9L115.6 225.5C114.6 226.8 113.2 227.4 111.8 227.4ZM146.7 219.5C145.7 219.5 144.7 219.2 143.8 218.5C141.7 216.9 141.3 213.9 142.9 211.8L152.5 199.2C154.1 197.1 157.1 196.7 159.2 198.3C161.3 199.9 161.7 202.9 160.1 205L150.5 217.6C149.5 218.9 148.1 219.5 146.7 219.5Z" fill="white"/>
<path d="M182.9 169.3C173.8 169.3 166.5 161.9 166.5 152.9V126.4C165.8 105.7 149 89.4 128.1 89.4C107.2 89.4 90.4 105.7 89.7 126.6V152.9C89.7 162 82.3 169.3 73.3 169.3C64.2 169.3 56.9 161.9 56.9 152.9V125.5C56.9 121.7 53.8 118.6 50 118.6C46.2 118.6 43.1 121.7 43.1 125.5V134.4C43.1 143.5 35.7 150.8 26.7 150.8C17.6 150.8 10.3 143.4 10.3 134.4V127.8C10.3 62.8 63.2 9.79999 128.3 9.79999C193.4 9.79999 246.3 62.7 246.3 127.8V134.4C246.3 143.5 238.9 150.8 229.9 150.8C220.9 150.8 213.5 143.4 213.5 134.4V125.5C213.5 121.7 210.4 118.6 206.6 118.6C202.8 118.6 199.7 121.7 199.7 125.5V152.9C199.3 161.9 192 169.3 182.9 169.3ZM128 79.8C154.1 79.8 175.1 100.2 175.9 126.2V152.8C175.9 156.6 179 159.7 182.8 159.7C186.6 159.7 189.7 156.6 189.7 152.8V125.4C189.7 116.3 197.1 109 206.1 109C215.2 109 222.5 116.4 222.5 125.4V134.3C222.5 138.1 225.6 141.2 229.4 141.2C233.2 141.2 236.3 138.1 236.3 134.3V127.7C236.5 68 187.8 19.4 128 19.4C68.3 19.4 19.6 68 19.6 127.8V134.4C19.6 138.2 22.7 141.3 26.5 141.3C30.3 141.3 33.4 138.2 33.4 134.4V125.5C33.4 116.4 40.8 109.1 49.8 109.1C58.8 109.1 66.2 116.5 66.2 125.5V152.9C66.2 156.7 69.3 159.8 73.1 159.8C76.9 159.8 80 156.7 80 152.9V126.4C80.9 100.2 102 79.8 128 79.8Z" fill="white"/>
<path d="M43 94.2C42.4 94.2 41.8 94.1 41.2 93.9C38.8 92.9 37.6 90.1 38.6 87.7C45.8 70 58.1 55 74.1 44.3C86.8 35.8 100.9 30.6 116 28.8C118.6 28.5 121 30.4 121.3 33C121.6 35.6 119.7 38 117.1 38.3C103.5 39.9 90.8 44.6 79.4 52.2C65 61.8 53.9 75.3 47.4 91.2C46.6 93 44.9 94.2 43 94.2Z" fill="white"/>
<path d="M129.6 31.8C129.6 34.5 131.8 36.7 134.5 36.7C137.2 36.7 139.4 34.5 139.4 31.8C139.4 29.1 137.2 26.9 134.5 26.9C131.8 26.9 129.6 29.1 129.6 31.8Z" fill="white"/>
</svg>
